<?xml version="1.0" encoding="UTF-8"?>
<svg version="1.1" xmlns="http://www.w3.org/2000/svg" width="1450" height="520">
<path d="M0 0 C1.17801178 -0.00101212 1.17801178 -0.00101212 2.37982178 -0.00204468 C13.9033949 0.01370475 24.90169817 0.41560198 36.125 3.25 C37.15318848 3.49943359 37.15318848 3.49943359 38.20214844 3.75390625 C57.07708856 8.41865118 75.26021154 17.02403857 91.125 28.25 C92.84982191 31.69964383 92.61555218 35.47758462 92.125 39.25 C90.06612318 41.86318981 88.78696662 42.15414963 85.53515625 42.625 C80.63612432 42.08627484 77.31839307 39.76086373 73.1875 37.1875 C71.48038611 36.16764239 69.77072185 35.15204221 68.05859375 34.140625 C66.79764893 33.39522461 66.79764893 33.39522461 65.51123047 32.63476562 C35.37529437 15.1464262 -1.4839678 11.63795058 -34.96875 20.28125 C-61.24066398 27.5591305 -84.46186169 43.68788997 -98.3203125 67.328125 C-115.47635481 97.84329461 -118.05302839 134.28944229 -109.28320312 167.89819336 C-101.51101709 195.32063172 -84.71224386 218.06735108 -59.875 232.25 C-28.90529314 249.51031813 9.46249445 250.29488134 43.05859375 240.9296875 C54.25400622 237.54965177 64.98890762 232.64220071 74.94921875 226.51171875 C77.125 225.25 77.125 225.25 79.125 225.25 C79.125 192.58 79.125 159.91 79.125 126.25 C49.07279527 126.3687355 49.07279527 126.3687355 19.02075195 126.52026367 C13.20349121 126.53381348 13.20349121 126.53381348 10.47868347 126.53633118 C8.57888175 126.54093272 6.67908871 126.55147323 4.77934265 126.56672668 C1.89872047 126.58869615 -0.9813671 126.5917177 -3.86206055 126.59057617 C-4.70595935 126.6013705 -5.54985815 126.61216482 -6.41932964 126.62328625 C-11.05805291 126.59869007 -14.10967094 126.2704768 -17.875 123.25 C-19.27957737 120.44084526 -19.12395157 118.36189466 -18.875 115.25 C-17.09515595 112.1140843 -16.35191793 111.40897264 -12.875 110.25 C-11.40513656 110.15921346 -9.93149612 110.12372367 -8.45883179 110.12301636 C-7.55583847 110.12019653 -6.65284515 110.11737671 -5.7224884 110.11447144 C-4.73431625 110.11649567 -3.7461441 110.1185199 -2.72802734 110.12060547 C-1.68556351 110.11885315 -0.64309967 110.11710083 0.43095398 110.11529541 C3.88367365 110.11088672 7.33634229 110.11381103 10.7890625 110.1171875 C13.18134572 110.11651428 15.57362888 110.11554411 17.96591187 110.11428833 C22.98118745 110.11281277 27.99644523 110.11496176 33.01171875 110.11962891 C39.45619431 110.12533225 45.90062827 110.12204245 52.34510231 110.11605644 C57.28455929 110.11245225 62.22400632 110.11358865 67.16346359 110.11618423 C69.54064311 110.11685358 71.91782351 110.11602482 74.29500198 110.11370468 C77.60896468 110.11117982 80.92285885 110.11501611 84.23681641 110.12060547 C85.22903702 110.11858124 86.22125763 110.11655701 87.24354553 110.11447144 C88.58957603 110.11870117 88.58957603 110.11870117 89.96279907 110.12301636 C91.13915389 110.1235819 91.13915389 110.1235819 92.33927345 110.12415886 C94.125 110.25 94.125 110.25 95.125 111.25 C95.23829335 112.81747328 95.28238646 114.38999807 95.29908752 115.96147156 C95.31849144 117.49031731 95.31849144 117.49031731 95.33828735 119.05004883 C95.34726044 120.17781738 95.35623352 121.30558594 95.36547852 122.4675293 C95.37847488 123.64797318 95.39147125 124.82841705 95.40486145 126.04463196 C95.51668211 136.94326026 95.57741927 147.84263077 95.62162876 158.7417326 C95.65485926 166.79930286 95.71438085 174.85574758 95.80913979 182.91283482 C95.87349908 188.57658106 95.9071699 194.24002093 95.91837829 199.90411884 C95.92593647 203.28742617 95.94708826 206.66937548 96.00140572 210.05228233 C96.05470735 213.83094402 96.05788885 217.60654163 96.04907227 221.38549805 C96.07626343 222.50314545 96.10345459 223.62079285 96.13146973 224.77230835 C96.042101 232.19425264 96.042101 232.19425264 93.39608574 235.24028969 C91.36926943 236.78533901 89.36449061 238.03975362 87.125 239.25 C86.05378906 239.93964844 84.98257812 240.62929688 83.87890625 241.33984375 C71.28259655 248.6324441 58.51950751 253.83175434 44.4375 257.5625 C43.06766968 257.92625732 43.06766968 257.92625732 41.67016602 258.29736328 C28.90319789 261.51153638 16.36143821 262.60211834 3.24951172 262.56567383 C0.89112684 262.56252156 -1.46598821 262.58605261 -3.82421875 262.61132812 C-18.29971324 262.67295961 -32.5823882 260.9669062 -46.3125 256.1875 C-47.17883057 255.89004883 -48.04516113 255.59259766 -48.93774414 255.28613281 C-64.18836135 249.82711293 -77.77205998 242.0033458 -89.875 231.25 C-91.22658203 230.04923828 -91.22658203 230.04923828 -92.60546875 228.82421875 C-115.75331155 206.89657231 -128.79831431 173.48493909 -130.00146484 141.93359375 C-130.08182485 138.08040817 -130.12158682 134.22888909 -130.125 130.375 C-130.12567474 129.68847351 -130.12634949 129.00194702 -130.12704468 128.2946167 C-130.10954455 117.0516865 -129.46031302 106.2228181 -126.875 95.25 C-126.71402832 94.54842773 -126.55305664 93.84685547 -126.38720703 93.12402344 C-121.1863961 71.31159258 -110.32246263 52.39329428 -94.875 36.25 C-94.25238281 35.56421875 -93.62976563 34.8784375 -92.98828125 34.171875 C-69.40950888 9.06072958 -33.18531812 0.02552118 0 0 Z " fill="#5C6167" transform="translate(978.875,128.75)"/>
<path d="M0 0 C0.80969238 0.22042969 1.61938477 0.44085938 2.45361328 0.66796875 C35.05950201 9.88121931 61.30525735 28.82930495 78.16186523 58.38647461 C96.93216474 92.49113925 98.87214575 135.23223876 88.3125 172.1875 C85.52699667 181.34087998 81.64049781 189.65458861 77 198 C76.484375 198.94359375 75.96875 199.8871875 75.4375 200.859375 C71.88872448 207.06973215 67.59364315 212.53266393 63 218 C62.44570313 218.68964844 61.89140625 219.37929688 61.3203125 220.08984375 C42.28234128 243.09026352 11.12034922 255.8810017 -18 259 C-22.99708449 259.30491675 -27.99557438 259.33035897 -33.00048828 259.31567383 C-35.23390026 259.31252272 -37.46596991 259.33604514 -39.69921875 259.36132812 C-73.47213816 259.51017185 -105.78889118 246.50755054 -130 223 C-154.96559817 197.59794032 -165.46569319 162.4972417 -165.375 127.5625 C-165.37445618 126.77241547 -165.37391235 125.98233093 -165.37335205 125.16830444 C-165.33218392 112.12311236 -164.47637472 99.63941179 -161 87 C-160.79632813 86.25878906 -160.59265625 85.51757812 -160.3828125 84.75390625 C-151.96544465 55.60487315 -132.71095185 28.83379004 -106 14 C-94.80820893 7.98298632 -83.34204943 3.06709139 -71 0 C-69.75734375 -0.31839844 -68.5146875 -0.63679687 -67.234375 -0.96484375 C-46.75618242 -5.53408627 -20.25672874 -5.57773635 0 0 Z M-123.625 49.75 C-128.55362933 55.3653343 -132.34456358 61.50230688 -136 68 C-136.81984375 69.45212891 -136.81984375 69.45212891 -137.65625 70.93359375 C-152.94761667 99.68292344 -153.95343297 135.31889313 -144.8125 166.125 C-135.86670903 194.15143646 -116.25740513 218.43041955 -90.05224609 232.00927734 C-80.69100915 236.60554994 -71.19288202 239.76363449 -61 242 C-60.02675781 242.22558594 -59.05351562 242.45117188 -58.05078125 242.68359375 C-28.50071843 248.40423342 4.63704882 242.62145959 29.72998047 225.84326172 C56.1593716 207.36768563 71.45002471 180.88737025 77.421875 149.53515625 C82.27728477 119.84498166 77.52447731 91.23636965 63 65 C62.45601562 64.01257813 61.91203125 63.02515625 61.3515625 62.0078125 C47.31115242 38.37882968 22.98279697 22.63794567 -3.09228516 15.42089844 C-47.397847 4.30860843 -92.26974338 16.56926612 -123.625 49.75 Z " fill="#5C6167" transform="translate(293,132)"/>
<path d="M0 0 C16.18948387 13.20666918 27.19600477 30.57112921 32 51 C32.17515137 51.74290283 32.35030273 52.48580566 32.53076172 53.2512207 C34.300182 61.65715088 34.39712054 70.01449121 34.375 78.5625 C34.37478851 79.31534271 34.37457703 80.06818542 34.37435913 80.84384155 C34.34214065 92.32965497 33.61596687 103.03393052 30 114 C29.62617188 115.155 29.25234375 116.31 28.8671875 117.5 C20.61906199 140.66029945 5.87124614 157.85667718 -16.1875 168.625 C-37.97138224 178.21733451 -63.55447247 178.86641671 -85.875 170.6875 C-109.4308037 160.81398527 -124.99514548 144.29605571 -134.68359375 120.6953125 C-144.82848301 92.21737409 -144.42310195 58.51749733 -131.91015625 30.87109375 C-122.14220376 10.47905352 -105.0986097 -4.30442724 -84 -12 C-56.53573744 -21.3209625 -23.41360762 -17.35554131 0 0 Z M-106.3203125 20.875 C-122.84309032 41.7782352 -128.08323916 66.05281357 -125.79785156 92.32373047 C-123.18106538 113.65794382 -113.40292381 132.86727683 -96.8125 146.6875 C-81.0139927 158.32995399 -62.12305783 162.7074034 -42.75 160.3125 C-23.46706277 157.00747898 -7.24566761 147.52293894 4.34765625 131.62109375 C18.0708676 109.85212255 22.77377499 83.81738877 17.82226562 58.42773438 C13.38349076 38.92093448 3.59861365 21.55642605 -13.3125 10.25 C-42.64730683 -7.32647233 -82.31248706 -4.9244542 -106.3203125 20.875 Z " fill="#5C6167" transform="translate(311,180)"/>
<path d="M0 0 C2 2 2 2 2.375 5.875 C2.28707416 8.89745069 2.07715786 9.8812956 0.375 12.5 C-2.79502405 14.50212045 -4.26151318 14.42639423 -8 14 C-11.02239704 12.68296533 -13.80116105 11.00728128 -16.625 9.3125 C-39.66815546 -3.944633 -63.58179465 -9.54079739 -89.77734375 -3.06640625 C-108.42799012 2.49606723 -122.45332033 14.25937557 -132.03808594 31.18261719 C-144.34623726 54.43690105 -143.28472165 83.33783971 -135.8125 107.875 C-129.62628798 125.03019691 -118.27444168 138.7461393 -102 147 C-78.27960819 157.75757564 -52.65236886 154.86963832 -29 146 C-28.67 131.15 -28.34 116.3 -28 101 C-34.01154297 101.03480469 -34.01154297 101.03480469 -40.14453125 101.0703125 C-43.33940252 101.08317376 -46.53426647 101.0940196 -49.72914886 101.10350037 C-53.10211885 101.11406318 -56.47498839 101.12817947 -59.84790039 101.15087891 C-63.71763815 101.17507811 -67.58723176 101.18647192 -71.45703125 101.1953125 C-72.66647903 101.20563507 -73.87592682 101.21595764 -75.12202454 101.22659302 C-76.80342781 101.22681961 -76.80342781 101.22681961 -78.51879883 101.22705078 C-79.50697098 101.231492 -80.49514313 101.23593323 -81.51325989 101.24050903 C-84 101 -84 101 -87 99 C-88.43648208 93.52341205 -88.43648208 93.52341205 -88 91 C-85.39000851 87.75019847 -83.90269756 86.16876976 -79.74798584 85.39199829 C-77.90385101 85.40412857 -77.90385101 85.40412857 -76.02246094 85.41650391 C-75.34058716 85.41416748 -74.65871338 85.41183105 -73.95617676 85.40942383 C-71.71478284 85.40781594 -69.47547478 85.44175857 -67.234375 85.4765625 C-65.67450706 85.48335438 -64.11462885 85.4880751 -62.55474854 85.49081421 C-59.29303006 85.50147444 -56.0320001 85.52813116 -52.77050781 85.56787109 C-48.58152062 85.61890651 -44.39292772 85.64391078 -40.2036705 85.65880775 C-36.21385029 85.67356316 -32.22412346 85.69880203 -28.234375 85.7265625 C-27.4695153 85.73147327 -26.70465561 85.73638405 -25.91661835 85.74144363 C-23.76429441 85.75765038 -21.61218519 85.7810499 -19.45996094 85.80712891 C-17.62059967 85.82641953 -17.62059967 85.82641953 -15.74407959 85.84609985 C-13 86 -13 86 -12 87 C-11.86368606 89.08921521 -11.79803816 91.18306402 -11.75952148 93.27636719 C-11.74652512 93.93172455 -11.73352875 94.58708191 -11.72013855 95.26229858 C-11.59329603 102.12532052 -11.53665099 108.98958474 -11.48510742 115.85351562 C-11.45836108 119.11136697 -11.40964018 122.36775527 -11.34155273 125.625 C-11.25959406 129.55558699 -11.21692332 133.48478078 -11.20204353 137.41617584 C-11.18979397 138.91382618 -11.16375533 140.41143035 -11.12359428 141.90859222 C-10.82500216 153.62810032 -10.82500216 153.62810032 -13.7109375 156.99765015 C-15.78427321 158.32415101 -17.68104799 159.19291301 -20 160 C-21.17820312 160.55945313 -22.35640625 161.11890625 -23.5703125 161.6953125 C-50.09217729 172.36234823 -80.1943463 173.5583543 -107 163 C-128.40618147 153.34484664 -142.34595376 136.84769762 -150.90625 115.2734375 C-160.66372527 86.07070794 -160.61396029 51.92283271 -147 24 C-136.73066279 4.40926441 -120.17684643 -10.89320708 -98.90087891 -17.66845703 C-65.45305756 -27.34648644 -27.91374908 -21.37784686 0 0 Z " fill="#5C6167" transform="translate(1048,186)"/>
<path d="M0 0 C2.1328125 0.4375 2.1328125 0.4375 4.7578125 2.375 C6.67688097 6.64928886 6.2628033 9.93907351 5.1328125 14.4375 C3.65677431 17.38296518 1.77057567 19.89998651 -0.2421875 22.5 C-1.3435629 23.98875912 -2.4437979 25.47836249 -3.54296875 26.96875 C-4.37948975 28.08636719 -4.37948975 28.08636719 -5.23291016 29.2265625 C-7.72007033 32.59132535 -10.07590871 36.04124691 -12.4296875 39.5 C-13.34347513 40.83352173 -14.25753721 42.16685543 -15.171875 43.5 C-16.07033344 44.81248566 -16.96877128 46.12498543 -17.8671875 47.4375 C-24.8068825 57.56598749 -31.79944189 67.65639002 -38.81860352 77.72998047 C-43.59805144 84.59587928 -48.33271795 91.49084642 -53.04516602 98.40283203 C-59.23811476 107.47083615 -65.55142303 116.45479357 -71.8671875 125.4375 C-63.02141762 139.61630346 -53.33020036 153.22023593 -43.78271484 166.9309082 C-37.68282807 175.69323663 -31.63083262 184.48762328 -25.59472656 193.29394531 C-20.37111495 200.91254108 -15.12605982 208.51563975 -9.84838867 216.09692383 C-8.45140494 218.10536121 -7.05700714 220.11559988 -5.6652832 222.12768555 C-2.78171893 226.29082494 0.10259245 230.43984407 3.15625 234.48046875 C10.47013787 244.23873132 10.47013787 244.23873132 9.68359375 250.625 C8.76046854 253.66280211 7.90162532 254.84543263 5.1328125 256.4375 C-0.28545673 257.21153846 -0.28545673 257.21153846 -2.8671875 256.4375 C-6.69057799 253.11702775 -9.61403416 249.26050159 -12.4921875 245.125 C-12.92257324 244.51454834 -13.35295898 243.90409668 -13.79638672 243.27514648 C-17.3486111 238.2213408 -20.84843029 233.13088082 -24.33837891 228.03393555 C-28.48402056 221.98038098 -32.67305807 215.95753469 -36.8671875 209.9375 C-41.81773346 202.82995516 -46.75169263 195.71199052 -51.64892578 188.56762695 C-55.65243444 182.73417566 -59.69727618 176.92979085 -63.7421875 171.125 C-69.87254407 162.32312452 -75.98264191 153.50852867 -82 144.62890625 C-83.78533101 141.99848684 -85.60540179 139.40411502 -87.484375 136.83984375 C-88.22945312 135.79957031 -88.97453125 134.75929688 -89.7421875 133.6875 C-90.37898437 132.82640625 -91.01578125 131.9653125 -91.671875 131.078125 C-93.33924726 127.39464902 -92.91237825 125.31235352 -91.8671875 121.4375 C-90.0390625 118.359375 -90.0390625 118.359375 -87.6171875 115.1875 C-86.69577286 113.95342067 -85.77661674 112.71765277 -84.859375 111.48046875 C-84.12605957 110.49892822 -84.12605957 110.49892822 -83.37792969 109.49755859 C-80.73754464 105.89711111 -78.24729282 102.19522304 -75.7421875 98.5 C-70.82727432 91.2818639 -65.86197029 84.1005837 -60.8671875 76.9375 C-56.00220898 69.95874432 -51.1603058 62.96581312 -46.3671875 55.9375 C-40.90724247 47.93139606 -35.38165455 39.97234137 -29.83496094 32.02612305 C-26.56314293 27.33368896 -23.30935855 22.6310162 -20.1015625 17.89453125 C-19.51246094 17.02570313 -18.92335938 16.156875 -18.31640625 15.26171875 C-17.21618837 13.63541968 -16.11959156 12.00666257 -15.02734375 10.375 C-7.73001906 -0.40818583 -7.73001906 -0.40818583 0 0 Z " fill="#5C6167" transform="translate(605.8671875,131.5625)"/>
<path d="M0 0 C5.83518169 5.01353942 10.01594611 12.15558697 14.25 18.5 C15.57265139 20.46111644 16.89556979 22.42205282 18.21875 24.3828125 C18.86199219 25.33961914 19.50523437 26.29642578 20.16796875 27.28222656 C22.67158638 30.99628193 25.20690705 34.68791019 27.75 38.375 C28.63678866 39.66271227 29.52350826 40.95047211 30.41015625 42.23828125 C30.8395752 42.8617041 31.26899414 43.48512695 31.71142578 44.12744141 C32.99573734 45.9938055 34.27755351 47.86185805 35.55859375 49.73046875 C40.92290657 57.55174943 46.32631111 65.344767 51.75 73.125 C57.77836276 81.77563608 63.76817678 90.45124281 69.67089844 99.18823242 C72.52315266 103.40492476 75.4032225 107.58499479 78.41796875 111.6875 C78.94092529 112.4101001 79.46388184 113.1327002 80.00268555 113.87719727 C80.96564974 115.20223474 81.94390704 116.516362 82.94067383 117.81616211 C85.14623461 120.87698333 85.99589484 122.7343377 86.0546875 126.5390625 C84.8664394 130.43827664 83.09351898 133.26628776 80.625 136.4375 C79.70159836 137.67594651 78.77977875 138.91557386 77.859375 140.15625 C77.38306641 140.79175781 76.90675781 141.42726563 76.41601562 142.08203125 C74.15447239 145.14525256 72.01675598 148.28991374 69.875 151.4375 C65.28409303 158.14888941 60.64817134 164.82816095 56 171.5 C49.63230472 180.64335733 43.29942264 189.80951463 37 199 C30.01948945 209.18415239 22.99692419 219.33793864 15.93212891 229.46386719 C12.80831345 233.94485433 9.69619369 238.43180726 6.63671875 242.95703125 C6.13333984 243.69953125 5.62996094 244.44203125 5.11132812 245.20703125 C4.18984103 246.56966924 3.27286276 247.93537185 2.36132812 249.3046875 C0.3984918 252.20354944 -1.04694254 254.03129503 -4 256 C-11.0509632 256.55960025 -11.0509632 256.55960025 -14.09008789 254.76757812 C-16 253 -16 253 -16.58398438 250.82495117 C-16.61189023 243.76825813 -14.71842987 239.85566058 -10.5 234.3125 C-9.30434236 232.65649915 -8.10904633 231.00023715 -6.9140625 229.34375 C-6.27758789 228.47878906 -5.64111328 227.61382812 -4.98535156 226.72265625 C-1.5275063 221.98066285 1.78697646 217.13917693 5.125 212.3125 C6.49156905 210.34982966 7.85874422 208.38758119 9.2265625 206.42578125 C12.33448866 201.96190822 15.42473646 197.48641836 18.5 193 C23.61086705 185.54389503 28.78000365 178.12881247 33.94824219 170.71240234 C38.246824 164.53764957 42.512782 158.3419916 46.75 152.125 C52.73406289 143.34589077 58.84569211 134.66038641 65 126 C61.05184413 119.56339378 56.87683773 113.33718828 52.5 107.1875 C47.83721505 100.63581436 43.26684137 94.02813742 38.75 87.375 C33.54809692 79.71582589 28.29846957 72.09269209 23 64.5 C15.83586028 54.23078988 8.77324319 43.89498682 1.73095703 33.54199219 C-0.96337649 29.58523611 -3.66663822 25.63466403 -6.375 21.6875 C-6.83366455 21.01726807 -7.2923291 20.34703613 -7.76489258 19.65649414 C-9.71283583 16.69235622 -9.71283583 16.69235622 -12 14 C-12.23828125 11.6015625 -12.23828125 11.6015625 -12.3125 8.625 C-12.34988281 7.64789063 -12.38726562 6.67078125 -12.42578125 5.6640625 C-12 3 -12 3 -10.21875 1.19140625 C-6.77836 -0.65598627 -3.71059839 -1.07667535 0 0 Z " fill="#5C6167" transform="translate(394,132)"/>
<path d="M0 0 C4.46856487 1.01207419 6.47225102 5.02812624 8.77734375 8.671875 C9.82663021 10.39017639 10.87057536 12.11174688 11.91015625 13.8359375 C13.07167035 15.73774091 14.23447291 17.63875788 15.3984375 19.5390625 C15.99736816 20.51810547 16.59629883 21.49714844 17.21337891 22.50585938 C20.12600431 27.23038603 23.10937442 31.90902347 26.09765625 36.5859375 C27.27611558 38.43224449 28.45450161 40.27859827 29.6328125 42.125 C30.20402832 43.01993164 30.77524414 43.91486328 31.36376953 44.83691406 C33.93304862 48.87059967 36.48464982 52.91536531 39.03515625 56.9609375 C43.35153694 63.80512343 47.68794138 70.63629673 52.03515625 77.4609375 C57.90153238 86.67138878 63.74188658 95.89792778 69.56738281 105.13427734 C71.55487329 108.28477372 73.54408424 111.43418189 75.53344727 114.58349609 C76.52629385 116.15532832 77.51897252 117.72726663 78.51147461 119.29931641 C81.14533903 123.47094075 83.78187579 127.64084864 86.421875 131.80859375 C86.97423828 132.68128906 87.52660156 133.55398438 88.09570312 134.453125 C89.16004096 136.1345999 90.22511556 137.81560872 91.29101562 139.49609375 C91.76732422 140.24890625 92.24363281 141.00171875 92.734375 141.77734375 C93.15549561 142.44193604 93.57661621 143.10652832 94.01049805 143.79125977 C95.73304835 146.59815076 96.16150796 148.27383915 96.16886902 151.54684448 C96.17526649 152.82966309 96.17526649 152.82966309 96.18179321 154.13839722 C96.18111343 155.54884811 96.18111343 155.54884811 96.18041992 156.98779297 C96.18377853 157.97652405 96.18713715 158.96525513 96.19059753 159.98394775 C96.20012718 163.26535281 96.20205169 166.54670695 96.203125 169.828125 C96.20633631 172.10254945 96.20970028 174.37697369 96.21321106 176.65139771 C96.21920746 181.42466714 96.22105045 186.19791846 96.22045898 190.97119141 C96.22035736 197.09370563 96.23400739 203.21610389 96.25123119 209.33859062 C96.26233913 214.03797949 96.26437856 218.73734022 96.26384926 223.43674088 C96.26503128 225.6942192 96.26946545 227.95169822 96.27718163 230.20916367 C96.28695657 233.36462314 96.28411321 236.51982959 96.27807617 239.67529297 C96.28369568 240.6115451 96.28931519 241.54779724 96.29510498 242.51242065 C96.29091049 243.37327271 96.286716 244.23412476 96.28239441 245.12106323 C96.28293918 245.8669615 96.28348394 246.61285976 96.28404522 247.38136101 C95.99451724 249.80049422 95.31464781 251.3953215 94.03515625 253.4609375 C90.91965753 255.01868686 87.43071745 255.02574372 84.03515625 254.4609375 C82.43173885 253.18751526 82.43173885 253.18751526 81.03515625 251.4609375 C80.78726201 248.37890748 80.72190405 245.50390179 80.79321289 242.42578125 C80.80229675 241.50001282 80.81138062 240.57424438 80.82073975 239.62042236 C80.84111241 237.60530893 80.86764712 235.59025068 80.8995533 233.57528687 C80.9457399 230.36876522 80.96574422 227.1631227 80.97715759 223.95629883 C81.01015256 214.83671519 81.05610133 205.71816575 81.20288086 196.59960938 C81.29077709 191.01939345 81.31843582 185.44148995 81.30904961 179.86062622 C81.31645244 177.74932938 81.34527497 175.63797908 81.39741707 173.52731323 C81.76158708 158.27771445 78.81670426 148.83400452 69.61773682 136.62670422 C66.92095157 132.93614472 64.55640277 129.03798846 62.16015625 125.1484375 C57.80118282 118.24236847 53.42235606 111.34910535 49.03515625 104.4609375 C43.16883099 95.25045364 37.32842607 86.02394747 31.50292969 76.78759766 C29.01532269 72.84433507 26.5251224 68.90271066 24.03515625 64.9609375 C21.05734754 60.24687887 18.0799979 55.53253514 15.10546875 50.81640625 C14.12373536 49.26039304 13.14196446 47.7044035 12.16015625 46.1484375 C11.67756348 45.38329834 11.1949707 44.61815918 10.69775391 43.82983398 C7.8905463 39.38363274 5.07024973 34.94610137 2.23828125 30.515625 C1.60132324 29.51829346 0.96436523 28.52096191 0.30810547 27.4934082 C-0.93334698 25.55074433 -2.17644502 23.60913083 -3.42138672 21.66870117 C-3.98486816 20.78674072 -4.54834961 19.90478027 -5.12890625 18.99609375 C-5.6285791 18.2162915 -6.12825195 17.43648926 -6.64306641 16.63305664 C-9.945968 11.20529243 -10.27555784 8.71203547 -8.96484375 2.4609375 C-5.75047846 0.31802731 -3.79057766 0.16067959 0 0 Z " fill="#5C6167" transform="translate(630.96484375,132.5390625)"/>
<path d="M0 0 C2.98543652 2.66341106 5.09372939 5.46883298 7.1796875 8.8671875 C7.77160889 9.82407471 8.36353027 10.78096191 8.97338867 11.7668457 C9.60092041 12.79253662 10.22845215 13.81822754 10.875 14.875 C12.221844 17.05388771 13.56951868 19.23226213 14.91796875 21.41015625 C15.59907715 22.51246582 16.28018555 23.61477539 16.98193359 24.75048828 C20.01181655 29.62923763 23.09618331 34.47252476 26.1875 39.3125 C30.47393317 46.03193511 34.74893593 52.75812779 39 59.5 C43.31643649 66.34415092 47.65278494 73.17535895 52 80 C57.37468155 88.43847061 62.7298585 96.88892919 68.06640625 105.3515625 C70.04883152 108.49509418 72.03618644 111.63542987 74.02734375 114.7734375 C74.78990479 115.97673706 74.78990479 115.97673706 75.56787109 117.2043457 C76.50326239 118.68016153 77.43962846 120.1553605 78.37744141 121.62963867 C79.29828532 123.08376987 80.20297672 124.54822114 81.09359741 126.02105713 C82.55636034 128.30676909 84.06075543 130.43451106 85.68359375 132.60084534 C94.75302238 145.24788375 95.54076891 155.91635356 95.21484375 171.1484375 C95.20445111 173.42239868 95.19839251 175.69638335 95.19642639 177.97036743 C95.18117912 182.69609178 95.13013886 187.4194766 95.04956055 192.14453125 C94.94690717 198.20190099 94.91103703 204.25733672 94.89845943 210.31549644 C94.88573804 214.99273864 94.85083308 219.66958372 94.80783272 224.34663773 C94.78757701 226.58175045 94.77131741 228.81690311 94.75913811 231.05207443 C94.73638734 234.16091376 94.68677791 237.26811092 94.62866211 240.37646484 C94.62431152 241.75716408 94.62431152 241.75716408 94.61987305 243.16575623 C94.46279517 249.37785551 94.46279517 249.37785551 92.08790588 252.57046509 C88.538176 255.00087291 86.2304731 254.47005257 82 254 C80.27251816 252.71763897 80.27251816 252.71763897 79 251 C78.76771606 247.94251926 78.71775199 245.09598674 78.80566406 242.04418945 C78.8195668 241.12645248 78.83346954 240.20871552 78.84779358 239.26316833 C78.87822862 237.26440983 78.91458366 235.26573487 78.95609283 233.26717567 C79.03694007 228.9840515 79.06241509 224.70116996 79.09092331 220.41742992 C79.14418128 212.44904631 79.21670543 204.48256085 79.39404297 196.51586914 C80.93242612 161.38634211 80.93242612 161.38634211 64.96565247 131.35153198 C61.43116614 127.12318654 58.68421345 122.37836738 55.8125 117.6875 C54.65840963 115.87019282 53.50130802 114.0547908 52.33984375 112.2421875 C49.17178633 107.27386888 46.01979148 102.29557113 42.875 97.3125 C42.38604248 96.53777344 41.89708496 95.76304687 41.39331055 94.96484375 C39.44206337 91.87237436 37.49155153 88.77944148 35.54101562 85.68652344 C29.71255373 76.44580447 23.86910897 67.21496701 18 58 C12.59317866 49.51002965 7.19374792 41.0156537 1.83984375 32.4921875 C-0.05622893 29.478052 -1.98265017 26.48670062 -3.93359375 23.5078125 C-4.39797852 22.78964355 -4.86236328 22.07147461 -5.34082031 21.33154297 C-6.20656419 19.9933754 -7.08150827 18.66109138 -7.96777344 17.33642578 C-10.60111101 13.23462302 -11.72640353 9.8652589 -12 5 C-10.0848905 -0.59801239 -5.45356419 -1.12158207 0 0 Z " fill="#5C6167" transform="translate(1096,133)"/>
<path d="M0 0 C2 1 2 1 3 3 C3.48037447 9.1669696 2.80072994 12.3057757 -0.625 17.625 C-1.21800903 18.56327637 -1.21800903 18.56327637 -1.82299805 19.52050781 C-2.70952156 20.91814527 -3.6044554 22.31047248 -4.50634766 23.69824219 C-6.12054278 26.18575961 -7.70840179 28.68882402 -9.29296875 31.1953125 C-11.67186214 34.953817 -14.06016515 38.70605642 -16.45703125 42.453125 C-19.65669055 47.45707745 -22.83319249 52.47521158 -26 57.5 C-30.31626899 64.344256 -34.6527855 71.17535981 -39 78 C-44.86637613 87.21045128 -50.70673033 96.43699028 -56.53222656 105.67333984 C-59.51361244 110.39932244 -62.49835866 115.12318409 -65.48291016 119.84716797 C-68.08465821 123.96567614 -70.68442554 128.08541654 -73.28125 132.20703125 C-73.82007813 133.06167969 -74.35890625 133.91632813 -74.9140625 134.796875 C-75.94073217 136.42538551 -76.96681261 138.05426769 -77.9921875 139.68359375 C-78.69214844 140.79347656 -78.69214844 140.79347656 -79.40625 141.92578125 C-80.01436523 142.89124878 -80.01436523 142.89124878 -80.63476562 143.8762207 C-82 146 -82 146 -84.05418396 148.53187561 C-86.60170404 153.07244694 -86.55437505 156.4994275 -86.49829102 161.61376953 C-86.50380981 162.56407043 -86.50932861 163.51437134 -86.51501465 164.49346924 C-86.52431595 166.54939842 -86.52445533 168.60538522 -86.51642036 170.66131973 C-86.50378328 173.91446968 -86.51508592 177.16677215 -86.53245544 180.41989136 C-86.55914422 186.14928184 -86.56475133 191.87846423 -86.56335449 197.60791016 C-86.56112476 206.78548783 -86.57517279 215.96280878 -86.61894035 225.14028549 C-86.6287952 228.34668165 -86.62005422 231.55267571 -86.61024475 234.75906372 C-86.61638731 236.7210517 -86.62329849 238.68303747 -86.63110352 240.64501953 C-86.61952461 241.98386703 -86.61952461 241.98386703 -86.60771179 243.34976196 C-86.65723873 249.37005283 -86.65723873 249.37005283 -88.38829041 252.55148315 C-90.49190615 254.44209847 -91.69679579 254.53737606 -94.5 254.5 C-95.2734375 254.5103125 -96.046875 254.520625 -96.84375 254.53125 C-99 254 -99 254 -100.59860229 252.5680542 C-102.75007475 248.62549181 -102.5171302 244.80782718 -102.57861328 240.37988281 C-102.61541199 238.91527618 -102.61541199 238.91527618 -102.6529541 237.42108154 C-102.72749691 234.18181746 -102.77710047 230.94295255 -102.8203125 227.703125 C-102.84426905 226.03248112 -102.84426905 226.03248112 -102.86870956 224.32808685 C-102.94896184 218.41312362 -103.00702173 212.49834992 -103.05029297 206.58300781 C-103.0900241 201.72838013 -103.17299167 196.87762372 -103.29638672 192.02441406 C-104.55306084 141.48706775 -104.55306084 141.48706775 -88.96766663 124.30419922 C-85.39510885 120.12062222 -82.67287994 115.37193561 -79.8125 110.6875 C-78.65862704 108.87005477 -77.50155491 107.05463258 -76.33984375 105.2421875 C-71.69148478 97.95238011 -67.07999678 90.63936029 -62.46777344 83.32666016 C-59.47901427 78.58898968 -56.48671078 73.85355675 -53.49511719 69.11767578 C-51.01905673 65.19764894 -48.5437665 61.27714081 -46.0703125 57.35546875 C-40.14796804 47.96792275 -34.20804937 38.59185373 -28.2355957 29.23608398 C-25.31506801 24.65724582 -22.41359886 20.06830425 -19.55078125 15.453125 C-19.00486328 14.5765625 -18.45894531 13.7 -17.89648438 12.796875 C-16.86519289 11.1386702 -15.83888263 9.47735362 -14.81835938 7.8125 C-14.1290332 6.70648438 -14.1290332 6.70648438 -13.42578125 5.578125 C-13.02786377 4.93262695 -12.62994629 4.28712891 -12.2199707 3.62207031 C-8.9286686 -0.75403759 -4.97122 -0.63175921 0 0 Z " fill="#5C6167" transform="translate(855,133)"/>
<path d="M0 0 C2.89848185 2.33219403 3.00104349 3.00642636 3.640625 6.9453125 C3.39713453 13.64671142 -0.56957289 18.51660938 -4.25 23.875 C-5.35825078 25.54423233 -6.46649002 27.21347352 -7.57269287 28.88406372 C-8.68037929 30.55177916 -9.79719707 32.21341774 -10.9140625 33.875 C-13.77345301 38.1587311 -16.51909607 42.50869693 -19.25 46.875 C-20.21308302 48.40393483 -21.17662123 49.93258304 -22.140625 51.4609375 C-22.61048828 52.20698242 -23.08035156 52.95302734 -23.56445312 53.72167969 C-26.03959579 57.64991631 -28.52013168 61.57474565 -31 65.5 C-32.00002448 67.08331787 -33.00002451 68.66665119 -34 70.25 C-36 73.41666667 -38 76.58333333 -40 79.75 C-40.49483887 80.5335083 -40.98967773 81.3170166 -41.49951172 82.12426758 C-42.50109035 83.71007325 -43.50271808 85.29584791 -44.50439453 86.8815918 C-46.98064184 90.80184757 -49.45607701 94.72261107 -51.9296875 98.64453125 C-57.29335335 107.14688208 -62.66966636 115.64111578 -68.0625 124.125 C-68.59149902 124.95813721 -69.12049805 125.79127441 -69.66552734 126.6496582 C-70.46724365 127.90975708 -70.46724365 127.90975708 -71.28515625 129.1953125 C-71.81481491 130.052388 -72.34447357 130.9094635 -72.8901825 131.79251099 C-74.43644682 134.14324787 -75.98825271 136.28390479 -77.72727966 138.47853088 C-86.78883383 150.37761543 -87.50942051 160.34797571 -87.1875 174.95703125 C-87.18178955 177.12032842 -87.18140007 179.28364545 -87.18603516 181.44694519 C-87.18603516 187.08677292 -87.12337238 192.72401793 -87.04400635 198.36322021 C-86.928316 207.43119347 -86.91423708 216.50002332 -86.89151001 225.56860924 C-86.87522147 228.72659235 -86.83474229 231.88352317 -86.78979492 235.04121399 C-86.77357629 236.96733311 -86.75768886 238.89345505 -86.7421875 240.81958008 C-86.72347092 241.69486359 -86.70475433 242.57014709 -86.68547058 243.47195435 C-86.67082241 246.98512105 -86.68363563 249.36665169 -88.27001953 252.54252625 C-90.65705536 254.55355593 -92.924713 254.48438864 -95.96484375 254.53125 C-99.07365076 253.719738 -100.07083736 252.59463574 -102 250 C-102.645155 246.77790779 -102.62873977 243.57876384 -102.64453125 240.30053711 C-102.66439087 239.31610123 -102.68425049 238.33166534 -102.70471191 237.31739807 C-102.76320503 234.05393262 -102.79042172 230.79124786 -102.8125 227.52734375 C-102.83552763 225.24687192 -102.85855827 222.96640012 -102.8815918 220.68592834 C-102.92364864 215.89336555 -102.94700038 211.101071 -102.9609375 206.30834961 C-102.98273163 200.21497329 -103.07849684 194.12523932 -103.19282532 188.03299618 C-103.26800116 183.31318009 -103.28818879 178.59420595 -103.29428101 173.87384224 C-103.30626571 171.63135699 -103.33796429 169.38887553 -103.39102173 167.14698601 C-103.73440386 151.50476783 -101.11119863 141.64712426 -91.58213997 129.14518452 C-88.87200553 125.47058014 -86.51611855 121.57400661 -84.125 117.6875 C-79.17512215 109.8452411 -74.19774793 102.02065678 -69.21582031 94.19873047 C-63.94553363 85.9212118 -58.70266097 77.62659707 -53.46777344 69.32666016 C-50.98016643 65.38339755 -48.48993586 61.44179232 -46 57.5 C-44.99998776 55.9166744 -43.99998775 54.33334107 -43 52.75 C-40 48 -40 48 -37 43.25 C-36.5045166 42.46544434 -36.0090332 41.68088867 -35.49853516 40.87255859 C-34.50356508 39.29727036 -33.50844909 37.72207427 -32.51318359 36.14697266 C-29.93499054 32.06631246 -27.35973883 27.98383782 -24.7890625 23.8984375 C-24.25925781 23.05732422 -23.72945312 22.21621094 -23.18359375 21.34960938 C-22.18263555 19.76036873 -21.1825593 18.17057206 -20.18359375 16.58007812 C-17.74142022 12.70475234 -15.27468852 8.84528605 -12.7734375 5.0078125 C-12.29052246 4.26418457 -11.80760742 3.52055664 -11.31005859 2.75439453 C-8.58086206 -0.9004706 -4.21513666 -0.70113164 0 0 Z " fill="#5C6167" transform="translate(1318,133)"/>
<path d="M0 0 C4.20871524 3.23943537 6.55662235 7.98404054 9.1875 12.5 C10.25949993 14.31304235 11.33247229 16.12550998 12.40625 17.9375 C13.2725 19.40316406 13.2725 19.40316406 14.15625 20.8984375 C17.46019791 26.45634987 20.82639588 31.97655207 24.1875 37.5 C25.63957174 39.88786959 27.0912808 42.27595957 28.54296875 44.6640625 C28.90766769 45.26384918 29.27236664 45.86363586 29.64811707 46.4815979 C32.28843969 50.82519891 34.92093659 55.17348643 37.55078125 59.5234375 C48.05026309 76.90253396 48.05026309 76.90253396 59 94 C64.61503752 85.08580449 70.15652069 76.12990686 75.625 67.125 C81.34002658 57.71477814 87.08904312 48.32617522 92.8684082 38.95532227 C96.03715948 33.81721228 99.20116643 28.67647821 102.34234619 23.52146912 C103.80990687 21.11351174 105.28050297 18.70741487 106.75128174 16.30142212 C107.79073625 14.59816228 108.82583583 12.89224718 109.86083984 11.1862793 C110.49070801 10.15672119 111.12057617 9.12716309 111.76953125 8.06640625 C112.59868042 6.7043103 112.59868042 6.7043103 113.44458008 5.31469727 C114.8318354 3.25025405 116.10943973 1.60663474 118 0 C119.9375 -0.36328125 119.9375 -0.36328125 122 -0.3125 C123.0209375 -0.30669922 123.0209375 -0.30669922 124.0625 -0.30078125 C126 0 126 0 129 2 C129.99963091 6.31230915 130.45483155 8.77733454 128.91015625 12.9296875 C128.30042969 13.90164062 127.69070313 14.87359375 127.0625 15.875 C126.53547485 16.73714111 126.53547485 16.73714111 125.99780273 17.61669922 C125.16935898 18.96575716 124.33068755 20.30856381 123.484375 21.64648438 C121.79943465 24.31800163 120.14863668 27.00905455 118.5 29.703125 C116.14738497 33.54384889 113.78856281 37.3805562 111.41978455 41.21133423 C107.09760733 48.20169295 102.81916416 55.21763284 98.56149292 62.24743652 C93.95145361 69.85877936 89.33435157 77.46575038 84.6875 85.0546875 C84.33692535 85.62726288 83.98635071 86.19983826 83.62515259 86.7897644 C81.27382401 90.62505166 78.90080876 94.44644694 76.5234375 98.265625 C74.38163662 101.71472943 72.31362257 105.18016407 70.3515625 108.734375 C65.52036865 117.31781315 65.52036865 117.31781315 61.44921875 119.14453125 C58.43515327 119.47942741 56.80329193 119.12941435 54 118 C52.4921875 116.34130859 52.4921875 116.34130859 51.1875 114.2109375 C50.42626831 112.9902356 50.42626831 112.9902356 49.6496582 111.74487305 C49.105271 110.83906494 48.56088379 109.93325684 48 109 C47.40727295 108.03940674 46.8145459 107.07881348 46.20385742 106.08911133 C44.18129172 102.79879203 42.18243074 99.49459712 40.1875 96.1875 C39.44031754 94.95234486 38.69291703 93.7173216 37.9453125 92.48242188 C36.39678434 89.92417189 34.84918294 87.36536486 33.30224609 84.80615234 C30.05871646 79.44175497 26.80373076 74.08432107 23.5489502 68.72674561 C21.79389719 65.83763793 20.0395217 62.94811897 18.28515625 60.05859375 C17.93633392 59.48409485 17.5875116 58.90959595 17.2281189 58.31768799 C15.01212941 54.66780052 12.79702669 51.01737618 10.58248901 47.36660767 C9.06545455 44.86577956 7.54811828 42.36513464 6.03076172 39.86450195 C4.981154 38.13445404 3.93197396 36.40414669 2.8828125 34.67382812 C1.90248047 33.05831055 1.90248047 33.05831055 0.90234375 31.41015625 C0.2666748 30.35844238 -0.36899414 29.30672852 -1.02392578 28.22314453 C-2.40717732 25.96694404 -3.80633716 23.73222479 -5.23779297 21.50732422 C-5.6050499 20.92994003 -5.97230682 20.35255585 -6.35069275 19.75767517 C-7.37058834 18.1574498 -8.40066588 16.56372691 -9.43139648 14.97045898 C-11.58891719 10.88476958 -12.48234015 7.66963896 -11.1875 3.1875 C-8.91742304 -0.99422071 -4.31711393 -0.88785928 0 0 Z " fill="#5C6167" transform="translate(681,133)"/>
<path d="M0 0 C3.74491289 0.91286744 5.69525594 3.99349596 7.7800293 7.07617188 C8.36308838 8.05005859 8.94614746 9.02394531 9.546875 10.02734375 C10.21332031 11.13335937 10.87976562 12.239375 11.56640625 13.37890625 C12.28520257 14.5846078 13.00395124 15.79033776 13.72265625 16.99609375 C14.47855124 18.25427619 15.23507292 19.51208232 15.9921875 20.76953125 C17.5641178 23.38136153 19.13334284 25.99478819 20.70068359 28.609375 C23.94182283 34.01155334 27.21558356 39.39384352 30.48931885 44.77630615 C32.23897611 47.65346358 33.98670971 50.53178854 35.734375 53.41015625 C36.08238159 53.98323517 36.43038818 54.55631409 36.78894043 55.14675903 C39.04716141 58.86626945 41.30235458 62.58760218 43.55581665 66.30999756 C45.11124753 68.87910925 46.6676474 71.44763326 48.22412109 74.01611328 C48.96370031 75.23717432 49.70280801 76.45852111 50.44140625 77.68017578 C51.46754346 79.37735768 52.49545804 81.07346456 53.5234375 82.76953125 C54.10649658 83.73294434 54.68955566 84.69635742 55.2902832 85.68896484 C57.14381247 88.67089846 59.07314791 91.58469182 61.03515625 94.49609375 C67.92066102 83.7233965 74.66480412 72.8711169 81.28515625 61.93359375 C91.70948245 44.71547445 102.20163599 27.53946278 112.91015625 10.49609375 C113.6513269 9.31164673 113.6513269 9.31164673 114.4074707 8.10327148 C115.08555786 7.02928101 115.08555786 7.02928101 115.77734375 5.93359375 C116.16776855 5.31355469 116.55819336 4.69351563 116.96044922 4.0546875 C118.03515625 2.49609375 118.03515625 2.49609375 120.03515625 0.49609375 C126.85812276 -0.16419333 126.85812276 -0.16419333 130.59765625 1.93359375 C132.780456 5.82467156 131.99223005 9.23678377 131.03515625 13.49609375 C129.72724312 16.10052208 128.48400096 18.25649621 126.84765625 20.62109375 C125.92764228 22.02079325 125.00979974 23.42192161 124.09375 24.82421875 C123.59858887 25.57380859 123.10342773 26.32339844 122.59326172 27.09570312 C119.7621783 31.4572218 117.09771796 35.92027006 114.41015625 40.37109375 C109.37948195 48.66172757 104.3130885 56.9295313 99.22265625 65.18359375 C94.95585931 72.10270981 90.70291345 79.02947796 86.48828125 85.98046875 C86.10976517 86.60472244 85.73124908 87.22897614 85.34126282 87.87214661 C83.51915892 90.87851916 81.6991203 93.88612299 79.8815918 96.89526367 C67.99547306 116.53577694 67.99547306 116.53577694 66.03515625 118.49609375 C62.54786127 119.19223926 59.51522662 119.24257027 56.03515625 118.49609375 C54.390625 116.77612305 54.390625 116.77612305 53.03515625 114.5078125 C52.53218018 113.68667969 52.0292041 112.86554688 51.51098633 112.01953125 C51.0239624 111.18679687 50.53693848 110.3540625 50.03515625 109.49609375 C49.59776123 108.78195313 49.16036621 108.0678125 48.7097168 107.33203125 C47.36105412 105.12712756 46.04015367 102.9072485 44.72265625 100.68359375 C43.67258013 98.92275639 42.62175433 97.16236595 41.5703125 95.40234375 C41.00586426 94.45746094 40.44141602 93.51257813 39.85986328 92.5390625 C36.48255137 86.90689557 33.07087508 81.2955668 29.66015625 75.68359375 C29.29716431 75.0862442 28.93417236 74.48889465 28.56018066 73.8734436 C26.74161661 70.88099031 24.92254104 67.88884862 23.10302734 64.89697266 C21.20042636 61.76790162 19.29922011 58.63798833 17.3984375 55.5078125 C16.82738281 54.5686499 16.25632812 53.6294873 15.66796875 52.66186523 C14.54454964 50.81252712 13.42342581 48.9617926 12.3046875 47.10961914 C9.50818225 42.49368621 6.67332988 37.90907592 3.74824524 33.37374878 C2.24107433 31.03362246 0.74870023 28.68421419 -0.74313354 26.33428955 C-1.81040328 24.66708337 -2.89919253 23.01371463 -3.98852539 21.36083984 C-7.95280208 15.10393979 -10.16529808 10.95076693 -8.96484375 3.49609375 C-6.43099198 0.13005963 -4.1422252 0.11971749 0 0 Z " fill="#5C6167" transform="translate(1141.96484375,132.50390625)"/>
<path d="M0 0 C1.32 0 2.64 0 4 0 C5.67041016 1.9284668 5.67041016 1.9284668 7.4140625 4.76171875 C8.11305664 5.86435059 8.81205078 6.96698242 9.53222656 8.10302734 C9.92236938 8.72433533 10.31251221 9.34564331 10.71447754 9.98577881 C13.13497741 13.77833964 15.68350653 17.48528031 18.2109375 21.20703125 C19.37363586 22.92736501 20.5358954 24.64799541 21.69775391 26.36889648 C22.59750946 27.70076492 22.59750946 27.70076492 23.51544189 29.05953979 C35.39733046 46.64993737 47.21854743 64.27928552 58.96240234 81.9621582 C59.48332458 82.74565643 60.00424683 83.52915466 60.54095459 84.33639526 C61.50720518 85.78982589 62.4724881 87.24390052 63.43658447 88.69876099 C65.16371724 91.29604698 66.88340206 93.84832062 68.78515625 96.32226562 C70.35417477 98.48912561 70.40191184 99.91168423 70.375 102.5625 C70.38273438 103.32691406 70.39046875 104.09132813 70.3984375 104.87890625 C69.89868476 107.53935464 69.17339628 108.41440862 67 110 C61.53364269 110.70533643 61.53364269 110.70533643 59 110 C55.26685025 106.6074183 52.48083295 103.01104183 49.71875 98.8046875 C49.31589783 98.1953688 48.91304565 97.58605011 48.49798584 96.95826721 C47.62106339 95.63086139 46.74670353 94.30175984 45.87463379 92.97116089 C43.98340608 90.08725276 42.07735219 87.2132545 40.17218018 84.33854675 C39.13703476 82.77645404 38.10250484 81.21395331 37.06854248 79.65107727 C30.81595288 70.20110069 24.52797397 60.77500246 18.21313477 51.36651611 C16.90297404 49.4117436 15.59552292 47.45515233 14.29077148 45.49676514 C12.45539204 42.74223561 10.61156782 39.99355132 8.765625 37.24609375 C8.21138855 36.41018204 7.6571521 35.57427032 7.08612061 34.71302795 C6.5759137 33.95751144 6.06570679 33.20199493 5.54003906 32.42358398 C5.09565491 31.75922836 4.65127075 31.09487274 4.19342041 30.41038513 C3.60267731 29.71224449 3.60267731 29.71224449 3 29 C2.34 29 1.68 29 1 29 C-0.22136908 30.39361532 -0.22136908 30.39361532 -1.40063477 32.26831055 C-1.88124863 32.9910466 -2.36186249 33.71378265 -2.85704041 34.4584198 C-3.37988113 35.25975845 -3.90272186 36.06109711 -4.44140625 36.88671875 C-4.99288834 37.71959915 -5.54437042 38.55247955 -6.11256409 39.41059875 C-7.30893096 41.21894069 -8.50217372 43.02935241 -9.69268799 44.84155273 C-12.20090186 48.65917951 -14.72409684 52.46680783 -17.2467041 56.27493286 C-18.54652805 58.23738686 -19.84559066 60.20034531 -21.1439209 62.16378784 C-27.207721 71.33059083 -33.32903898 80.45786846 -39.48117065 89.56558228 C-41.1075428 91.97414687 -42.73069196 94.38486223 -44.35375977 96.7956543 C-45.34237777 98.25976016 -46.33121596 99.72371738 -47.3203125 101.1875 C-47.76798477 101.85324539 -48.21565704 102.51899078 -48.67689514 103.20491028 C-50.33342566 105.64961349 -51.90651332 107.90651332 -54 110 C-60.9273743 110.67039106 -60.9273743 110.67039106 -64.5 108.4375 C-66.64584175 104.95050716 -66.48301924 103.08602038 -66 99 C-64.33250251 95.50467056 -62.18961832 92.37649765 -60.0078125 89.18359375 C-59.38784393 88.25007584 -58.76787537 87.31655792 -58.12911987 86.35475159 C-56.14261955 83.37207791 -54.13404918 80.40501899 -52.125 77.4375 C-50.81107837 75.46904714 -49.49856378 73.49965433 -48.1875 71.52929688 C-42.8817349 63.58003752 -37.53984132 55.66611153 -31.921875 47.93359375 C-27.833823 42.30402685 -24.03135396 36.50830262 -20.2578125 30.6640625 C-19.67560944 29.76472488 -19.09340637 28.86538727 -18.49356079 27.938797 C-16.08368591 24.21363688 -13.67571211 20.48751881 -11.28808594 16.74804688 C-9.51971603 13.98254695 -7.73419948 11.22882032 -5.9453125 8.4765625 C-5.40673615 7.62365631 -4.86815979 6.77075012 -4.31326294 5.89199829 C-3.55129105 4.72850357 -3.55129105 4.72850357 -2.77392578 3.54150391 C-2.11301437 2.51230331 -2.11301437 2.51230331 -1.43875122 1.46231079 C-0.72656937 0.73846695 -0.72656937 0.73846695 0 0 Z " fill="#48BEAF" transform="translate(494,277)"/>
<path d="M0 0 C8.56488879 2.98948133 15.98362583 19.32532996 20.79907227 26.62130737 C22.50769587 29.20965178 24.22253968 31.7937767 25.93896484 34.37695312 C30.78117973 41.66844565 35.60850675 48.96963714 40.41641235 56.28379822 C42.09146019 58.83031296 43.77111272 61.37376983 45.45147705 63.91677856 C46.59065143 65.64590506 47.72172516 67.38014481 48.85253906 69.11474609 C49.52494629 70.13318604 50.19735352 71.15162598 50.89013672 72.20092773 C51.46828125 73.08385498 52.04642578 73.96678223 52.64208984 74.87646484 C53.12613281 75.49013916 53.61017578 76.10381348 54.10888672 76.73608398 C54.76888672 76.73608398 55.42888672 76.73608398 56.10888672 76.73608398 C57.47972323 75.09751975 57.47972323 75.09751975 58.84155273 72.92236328 C59.38972153 72.08929153 59.93789032 71.25621979 60.50267029 70.39790344 C61.09588577 69.48212021 61.68910126 68.56633698 62.30029297 67.62280273 C63.57459934 65.68279525 64.84952138 63.74319206 66.125 61.80395508 C66.78381165 60.79830505 67.44262329 59.79265503 68.12139893 58.75653076 C71.23586768 54.0233761 74.40370918 49.32667063 77.57373047 44.63061523 C78.1889859 43.71786835 78.80424133 42.80512146 79.43814087 41.86471558 C80.68198956 40.01945626 81.92615996 38.17441377 83.1706543 36.32958984 C85.07104568 33.51202402 86.96987828 30.69341178 88.86865234 27.87475586 C90.10358519 26.04331281 91.33860788 24.21193033 92.57373047 22.38061523 C93.12802231 21.55753372 93.68231415 20.73445221 94.25340271 19.88642883 C105.25329696 3.59167374 105.25329696 3.59167374 108.10888672 0.73608398 C115.41323454 0.27231587 115.41323454 0.27231587 119.10888672 2.73608398 C120.3591662 7.60990663 120.59043888 9.66810668 118.50244141 14.29882812 C117.70095888 15.53363756 116.87531968 16.75298304 116.03076172 17.95874023 C115.58093933 18.63783951 115.13111694 19.31693878 114.66766357 20.01661682 C113.16782946 22.270379 111.63831054 24.50232025 110.10888672 26.73608398 C109.04224769 28.33081551 107.97784174 29.92704261 106.91552734 31.5246582 C104.03556108 35.84403697 101.12915614 40.14489331 98.21377563 44.44042969 C95.02580033 49.13786916 91.84709985 53.84158006 88.66748047 58.54467773 C87.71236824 59.95672989 87.71236824 59.95672989 86.73796082 61.39730835 C80.59451197 70.48500311 74.49934996 79.60449998 68.42138672 88.73608398 C67.95422241 89.43780731 67.48705811 90.13953064 67.0057373 90.86251831 C64.37188778 94.81933354 61.74012851 98.77753408 59.10888672 102.73608398 C58.44888672 103.72608398 57.78888672 104.71608398 57.10888672 105.73608398 C54.22870477 105.40523884 53.24048287 104.88285825 51.27368164 102.68920898 C50.655979 101.79717773 50.03827637 100.90514648 49.40185547 99.98608398 C48.70237793 98.98319336 48.00290039 97.98030273 47.28222656 96.94702148 C46.56502441 95.88741211 45.84782227 94.82780273 45.10888672 93.73608398 C44.43164551 92.73834961 43.7544043 91.74061523 43.05664062 90.71264648 C41.23070758 87.99577445 39.41780768 85.27080904 37.61334229 82.53964233 C35.47595766 79.30554703 33.32959199 76.07742411 31.18310547 72.84936523 C30.7153772 72.14580399 30.24764893 71.44224274 29.76574707 70.71736145 C21.88083753 58.87100069 13.89794174 47.09013797 5.93432617 35.29663086 C5.32815964 34.39882401 4.7219931 33.50101715 4.09745789 32.57600403 C2.96504146 30.898949 1.83234408 29.22208363 0.69929504 27.54545593 C-0.32556544 26.02804109 -1.34835534 24.50922524 -2.36883545 22.98886108 C-3.43109042 21.41685916 -4.50571857 19.85317827 -5.58966064 18.29605103 C-6.13467224 17.5045163 -6.67968384 16.71298157 -7.24121094 15.89746094 C-7.73464996 15.18966995 -8.22808899 14.48187897 -8.73648071 13.75263977 C-10.54867803 10.58765284 -10.58254207 8.26237079 -9.89111328 4.73608398 C-7.51890265 0.88124171 -4.5610682 -0.29592335 0 0 Z " fill="#48BEAF" transform="translate(441.89111328125,132.263916015625)"/>
</svg>
